<svg width="22" height="20" viewBox="0 0 22 20" fill="none" xmlns="http://www.w3.org/2000/svg">
<path d="M3.39616 1.54703L3.11823 1H3.24895L3.97882 2.44969L4.25588 3H4.87201H20.7152C20.7398 3 20.7589 3.00595 20.7723 3.01296L16.962 9.46128L16.9607 9.46349C16.7846 9.7633 16.4142 10 15.9483 10H7.9678H7.39744L7.10708 10.4909L6.14299 12.1209L6.07321 12.2389L6.03775 12.3713L6.00561 12.4913L5.97157 12.6184V12.75C5.97157 13.506 6.60302 14 7.23937 14H6.78947C6.09752 14 5.64705 13.484 5.64705 13C5.64705 12.835 5.69217 12.6856 5.76775 12.5621L5.77194 12.5552L5.77603 12.5483L7.22216 10.0983L7.50094 9.626L7.25251 9.13703L3.39616 1.54703ZM5.65776 18C5.65776 17.5097 6.10424 17 6.78947 17C7.48141 17 7.93188 17.516 7.93188 18C7.93188 18.484 7.48141 19 6.78947 19C6.10424 19 5.65776 18.4903 5.65776 18ZM16.3698 18C16.3698 17.5097 16.8163 17 17.5015 17C18.1935 17 18.644 17.516 18.644 18C18.644 18.484 18.1935 19 17.5015 19C16.8163 19 16.3698 18.4903 16.3698 18Z" fill="white" stroke="black" stroke-width="2"/>
</svg>
