<svg width="110" height="14" viewBox="0 0 110 14" fill="none" xmlns="http://www.w3.org/2000/svg">
<path d="M7.54297 7.34863H2.17285V13H0.485352V0.203125H8.41309V1.5918H2.17285V5.96875H7.54297V7.34863ZM16.0068 9.66016H10.6455L9.44141 13H7.70117L12.5879 0.203125H14.0645L18.96 13H17.2285L16.0068 9.66016ZM11.1553 8.27148H15.5059L13.3262 2.28613L11.1553 8.27148ZM24.4531 7.2959C23.0059 6.87988 21.9512 6.37012 21.2891 5.7666C20.6328 5.15723 20.3047 4.40723 20.3047 3.5166C20.3047 2.50879 20.7061 1.67676 21.5088 1.02051C22.3174 0.358398 23.3662 0.0273438 24.6553 0.0273438C25.5342 0.0273438 26.3164 0.197266 27.002 0.537109C27.6934 0.876953 28.2266 1.3457 28.6016 1.94336C28.9824 2.54102 29.1729 3.19434 29.1729 3.90332H27.4766C27.4766 3.12988 27.2305 2.52344 26.7383 2.08398C26.2461 1.63867 25.5518 1.41602 24.6553 1.41602C23.8232 1.41602 23.1729 1.60059 22.7041 1.96973C22.2412 2.33301 22.0098 2.83984 22.0098 3.49023C22.0098 4.01172 22.2295 4.4541 22.6689 4.81738C23.1143 5.1748 23.8672 5.50293 24.9277 5.80176C25.9941 6.10059 26.8262 6.43164 27.4238 6.79492C28.0273 7.15234 28.4727 7.57129 28.7598 8.05176C29.0527 8.53223 29.1992 9.09766 29.1992 9.74805C29.1992 10.7852 28.7949 11.6172 27.9863 12.2441C27.1777 12.8652 26.0967 13.1758 24.7432 13.1758C23.8643 13.1758 23.0439 13.0088 22.2822 12.6748C21.5205 12.335 20.9316 11.8721 20.5156 11.2861C20.1055 10.7002 19.9004 10.0352 19.9004 9.29102H21.5967C21.5967 10.0645 21.8809 10.6768 22.4492 11.1279C23.0234 11.5732 23.7881 11.7959 24.7432 11.7959C25.6338 11.7959 26.3164 11.6143 26.791 11.251C27.2656 10.8877 27.5029 10.3926 27.5029 9.76562C27.5029 9.13867 27.2832 8.65527 26.8438 8.31543C26.4043 7.96973 25.6074 7.62988 24.4531 7.2959ZM41.2051 13H39.5088V7.08496H33.0576V13H31.3701V0.203125H33.0576V5.70508H39.5088V0.203125H41.2051V13ZM46.0127 13H44.3252V0.203125H46.0127V13ZM58.9502 7.01465C58.9502 8.26855 58.7393 9.36426 58.3174 10.3018C57.8955 11.2334 57.2979 11.9453 56.5244 12.4375C55.751 12.9297 54.8486 13.1758 53.8174 13.1758C52.8096 13.1758 51.916 12.9297 51.1367 12.4375C50.3574 11.9395 49.751 11.2334 49.3174 10.3193C48.8896 9.39941 48.6699 8.33594 48.6582 7.12891V6.20605C48.6582 4.97559 48.8721 3.88867 49.2998 2.94531C49.7275 2.00195 50.3311 1.28125 51.1104 0.783203C51.8955 0.279297 52.792 0.0273438 53.7998 0.0273438C54.8252 0.0273438 55.7275 0.276367 56.5068 0.774414C57.292 1.2666 57.8955 1.98438 58.3174 2.92773C58.7393 3.86523 58.9502 4.95801 58.9502 6.20605V7.01465ZM57.2715 6.18848C57.2715 4.6709 56.9668 3.50781 56.3574 2.69922C55.748 1.88477 54.8955 1.47754 53.7998 1.47754C52.7334 1.47754 51.8926 1.88477 51.2773 2.69922C50.668 3.50781 50.3545 4.63281 50.3369 6.07422V7.01465C50.3369 8.48535 50.6445 9.64258 51.2598 10.4863C51.8809 11.3242 52.7334 11.7432 53.8174 11.7432C54.9072 11.7432 55.751 11.3477 56.3486 10.5566C56.9463 9.75977 57.2539 8.62012 57.2715 7.1377V6.18848ZM71.3164 13H69.6201L63.1777 3.13867V13H61.4814V0.203125H63.1777L69.6377 10.1084V0.203125H71.3164V13ZM76.124 13H74.4365V0.203125H76.124V13ZM82.9883 7.2959C81.541 6.87988 80.4863 6.37012 79.8242 5.7666C79.168 5.15723 78.8398 4.40723 78.8398 3.5166C78.8398 2.50879 79.2412 1.67676 80.0439 1.02051C80.8525 0.358398 81.9014 0.0273438 83.1904 0.0273438C84.0693 0.0273438 84.8516 0.197266 85.5371 0.537109C86.2285 0.876953 86.7617 1.3457 87.1367 1.94336C87.5176 2.54102 87.708 3.19434 87.708 3.90332H86.0117C86.0117 3.12988 85.7656 2.52344 85.2734 2.08398C84.7812 1.63867 84.0869 1.41602 83.1904 1.41602C82.3584 1.41602 81.708 1.60059 81.2393 1.96973C80.7764 2.33301 80.5449 2.83984 80.5449 3.49023C80.5449 4.01172 80.7646 4.4541 81.2041 4.81738C81.6494 5.1748 82.4023 5.50293 83.4629 5.80176C84.5293 6.10059 85.3613 6.43164 85.959 6.79492C86.5625 7.15234 87.0078 7.57129 87.2949 8.05176C87.5879 8.53223 87.7344 9.09766 87.7344 9.74805C87.7344 10.7852 87.3301 11.6172 86.5215 12.2441C85.7129 12.8652 84.6318 13.1758 83.2783 13.1758C82.3994 13.1758 81.5791 13.0088 80.8174 12.6748C80.0557 12.335 79.4668 11.8721 79.0508 11.2861C78.6406 10.7002 78.4355 10.0352 78.4355 9.29102H80.1318C80.1318 10.0645 80.416 10.6768 80.9844 11.1279C81.5586 11.5732 82.3232 11.7959 83.2783 11.7959C84.1689 11.7959 84.8516 11.6143 85.3262 11.251C85.8008 10.8877 86.0381 10.3926 86.0381 9.76562C86.0381 9.13867 85.8184 8.65527 85.3789 8.31543C84.9395 7.96973 84.1426 7.62988 82.9883 7.2959ZM98.7471 1.5918H94.6338V13H92.9551V1.5918H88.8506V0.203125H98.7471V1.5918ZM107.009 9.66016H101.647L100.443 13H98.7031L103.59 0.203125H105.066L109.962 13H108.23L107.009 9.66016ZM102.157 8.27148H106.508L104.328 2.28613L102.157 8.27148Z" fill="black"/>
</svg>
