<svg width="23" height="19" viewBox="0 0 23 19" fill="none" xmlns="http://www.w3.org/2000/svg">
<path d="M16.4025 0C14.5386 0 12.7496 0.81 11.582 2.09C10.4144 0.81 8.62549 0 6.76159 0C3.46228 0 0.869953 2.42 0.869953 5.5C0.869953 9.28 4.51206 12.36 10.0288 17.04L11.582 18.35L13.1353 17.03C18.652 12.36 22.2941 9.28 22.2941 5.5C22.2941 2.42 19.7018 0 16.4025 0ZM11.6891 15.55L11.582 15.65L11.4749 15.55C6.37596 11.24 3.01237 8.39 3.01237 5.5C3.01237 3.5 4.61918 2 6.76159 2C8.41125 2 10.0181 2.99 10.5858 4.36H12.589C13.146 2.99 14.7528 2 16.4025 2C18.5449 2 20.1517 3.5 20.1517 5.5C20.1517 8.39 16.7881 11.24 11.6891 15.55Z" fill="black"/>
</svg>
