<svg width="18" height="16" viewBox="0 0 18 16" fill="none" xmlns="http://www.w3.org/2000/svg">
<path d="M9.37461 1.9C10.6172 1.9 11.6241 2.84 11.6241 4C11.6241 5.16 10.6172 6.1 9.37461 6.1C8.13201 6.1 7.12508 5.16 7.12508 4C7.12508 2.84 8.13201 1.9 9.37461 1.9ZM9.37461 10.9C12.5561 10.9 15.909 12.36 15.909 13V14.1H2.84025V13C2.84025 12.36 6.19313 10.9 9.37461 10.9ZM9.37461 0C7.00725 0 5.08978 1.79 5.08978 4C5.08978 6.21 7.00725 8 9.37461 8C11.742 8 13.6594 6.21 13.6594 4C13.6594 1.79 11.742 0 9.37461 0ZM9.37461 9C6.51449 9 0.804955 10.34 0.804955 13V16H17.9443V13C17.9443 10.34 12.2347 9 9.37461 9Z" fill="black"/>
</svg>
