<svg width="22" height="20" viewBox="0 0 22 20" fill="none" xmlns="http://www.w3.org/2000/svg">
<path d="M11.2277 0C5.31461 0 0.526314 4.48 0.526314 10C0.526314 15.52 5.31461 20 11.2277 20C17.1515 20 21.9505 15.52 21.9505 10C21.9505 4.48 17.1515 0 11.2277 0ZM18.6511 6H15.4911C15.1483 4.75 14.6555 3.55 14.0128 2.44C15.9838 3.07 17.6228 4.35 18.6511 6ZM11.2384 2.04C12.1275 3.24 12.8238 4.57 13.2844 6H9.19238C9.653 4.57 10.3493 3.24 11.2384 2.04ZM2.94724 12C2.77585 11.36 2.66873 10.69 2.66873 10C2.66873 9.31 2.77585 8.64 2.94724 8H6.56792C6.48223 8.66 6.41795 9.32 6.41795 10C6.41795 10.68 6.48223 11.34 6.56792 12H2.94724ZM3.82563 14H6.98569C7.32848 15.25 7.82124 16.45 8.46396 17.56C6.49294 16.93 4.85399 15.66 3.82563 14ZM6.98569 6H3.82563C4.85399 4.34 6.49294 3.07 8.46396 2.44C7.82124 3.55 7.32848 4.75 6.98569 6ZM11.2384 17.96C10.3493 16.76 9.653 15.43 9.19238 14H13.2844C12.8238 15.43 12.1275 16.76 11.2384 17.96ZM13.745 12H8.73176C8.63535 11.34 8.56037 10.68 8.56037 10C8.56037 9.32 8.63535 8.65 8.73176 8H13.745C13.8414 8.65 13.9164 9.32 13.9164 10C13.9164 10.68 13.8414 11.34 13.745 12ZM14.0128 17.56C14.6555 16.45 15.1483 15.25 15.4911 14H18.6511C17.6228 15.65 15.9838 16.93 14.0128 17.56ZM15.9089 12C15.9945 11.34 16.0588 10.68 16.0588 10C16.0588 9.32 15.9945 8.66 15.9089 8H19.5295C19.7009 8.64 19.808 9.31 19.808 10C19.808 10.69 19.7009 11.36 19.5295 12H15.9089Z" fill="black"/>
</svg>
